:SAMPLES-PER-SECOND 30
:FULLY-SPECIFIED
:DEGREES
491
root  -14.9961 31.4401 5.86979 -48.7023 -79.0193 51.5622
RightUpLeg  -35.2155 -18.178 -43.7761
RightLeg  46.5401 3.36306 3.47765
RightFoot  9.5716 -6.20635 33.1139
RightToes  -1.16417e-010 0 -3.6325e-017
Spine  38.8174 -0.500347 9.70699
Spine1  -1.79571 6.27747 -19.1274
HEad  -30.7754 -18.986 5.33987
LeftShoulder1  1.4673 -4.35273 -11.4897
LeftArm  -17.4056 8.07397 -56.5511
LeftForeArm  -62.458 -24.0518 -7.38375
LeftHand  0.268857 6.84556 21.8709
RightShoulder  1.05293 2.05774 11.8691
RightArm  6.5678 -19.1514 3.85117
RightForeArm  19.7622 52.1433 12.9154
RightHand  -1.88791 0.547739 -35.9929
LeftUpLeg  -41.9834 10.4629 7.67519
LeftLeg  65.716 -2.67385 -5.76169
LeftFoot  -23.5117 -2.2312 -22.0011
LeftToes  6.91183e-011 3.39355e-011 2.1261e-011
492
root  -14.6756 31.4462 5.09909 -75.0883 -84.9918 78.9372
RightUpLeg  -41.435 -21.7115 -34.9716
RightLeg  47.71 6.95038 7.81087
RightFoot  10.0088 -5.79165 30.4519
RightToes  -1.16417e-010 0 -3.6325e-017
Spine  40.0999 0.227306 3.19819
Spine1  -1.1521 4.30373 -14.6752
HEad  -33.974 -9.85133 8.22969
LeftShoulder1  1.19212 -4.0091 -8.38644
LeftArm  -23.9207 3.56569 -56.9184
LeftForeArm  -60.567 -27.0485 -7.94432
LeftHand  0.355805 7.17496 23.2772
RightShoulder  1.05475 2.05699 11.9072
RightArm  11.0415 -19.0736 6.01841
RightForeArm  25.273 56.7202 15.0081
RightHand  -1.77775 0.192356 -36.0406
LeftUpLeg  -42.1561 10.7687 13.8909
LeftLeg  65.428 -0.930465 -1.50771
LeftFoot  -22.1989 -2.08505 -23.0468
LeftToes  6.91183e-011 3.39355e-011 2.1261e-011
493
root  -14.4613 31.6046 4.22218 -159.795 -87.919 165.42
RightUpLeg  -47.3945 -24.6791 -23.8767
RightLeg  48.8558 10.6833 12.5174
RightFoot  11.8433 -5.42804 26.4515
RightToes  -1.16417e-010 0 -3.6325e-017
Spine  40.1894 0.690107 -1.80235
Spine1  -1.50205 2.10779 -9.27785
HEad  -35.1429 -0.570736 9.47258
LeftShoulder1  0.997714 -3.79788 -5.92605
LeftArm  -30.4875 2.22726 -54.4766
LeftForeArm  -57.7461 -31.6583 -9.13431
LeftHand  0.512767 7.72807 25.2893
RightShoulder  1.06624 2.02239 12.2719
RightArm  14.6852 -19.0411 7.825
RightForeArm  29.4433 59.0726 16.1989
RightHand  -1.61576 -0.241181 -35.5524
LeftUpLeg  -42.0752 10.9992 21.7991
LeftLeg  64.2493 0.513539 1.86268
LeftFoot  -20.5856 -1.9107 -24.7999
LeftToes  6.91183e-011 3.39355e-011 2.1261e-011
494
root  -14.3295 31.8474 3.17299 132.524 -81.2761 -125.261
RightUpLeg  -51.6135 -24.7669 -12.657
RightLeg  49.4031 14.5695 17.186
RightFoot  13.808 -5.17234 23.3226
RightToes  -1.16417e-010 0 -3.6325e-017
Spine  39.7362 1.28098 -5.75787
Spine1  -1.7527 0.349117 -3.13416
HEad  -35.4711 8.22302 9.90489
LeftShoulder1  0.855777 -3.756 -3.79213
LeftArm  -36.2951 3.04791 -50.2248
LeftForeArm  -56.1487 -35.8061 -10.3335
LeftHand  0.727274 8.36583 27.8618
RightShoulder  1.03719 1.84345 12.3833
RightArm  15.6716 -19.418 10.9126
RightForeArm  30.1609 59.1299 16.1867
RightHand  -1.49443 -0.575202 -35.1899
LeftUpLeg  -40.2906 12.0097 31.0573
LeftLeg  61.9196 1.62398 3.94066
LeftFoot  -18.3709 -1.62225 -27.7386
LeftToes  6.91183e-011 3.39355e-011 2.1261e-011
495
root  -14.2888 32.1353 1.97838 133.835 -74.8457 -124.96
RightUpLeg  -53.6295 -23.1909 -3.09465
RightLeg  49.0727 18.1012 20.7746
RightFoot  14.3027 -4.83412 21.4509
RightToes  -1.16417e-010 0 -3.6325e-017
Spine  38.7158 1.90586 -9.84563
Spine1  -1.32968 -1.4499 3.63297
HEad  -35.2096 16.3483 10.0261
LeftShoulder1  0.677004 -3.40154 -1.53767
LeftArm  -41.3123 5.9549 -45.1032
LeftForeArm  -55.3554 -38.7037 -11.2695
LeftHand  0.997079 9.0299 30.9023
RightShoulder  0.915321 1.28034 12.0962
RightArm  13.8299 -19.9495 15.822
RightForeArm  27.4601 57.8215 15.5388
RightHand  -1.44074 -0.729779 -35.0582
LeftUpLeg  -36.9544 12.6521 39.8981
LeftLeg  58.1145 3.08259 5.86556
LeftFoot  -15.4796 -1.07724 -31.6947
LeftToes  6.91183e-011 3.39355e-011 2.1261e-011
496
root  -14.3485 32.3947 0.736088 132.4 -70.8057 -121.753
RightUpLeg  -54.6657 -23.0693 4.66528
RightLeg  48.8171 20.1846 22.7027
RightFoot  12.6913 -4.11611 19.5663
RightToes  -1.16417e-010 0 -3.6325e-017
Spine  37.8226 1.73264 -14.1805
Spine1  -1.19347 -4.21899 10.1087
HEad  -33.8932 23.3526 10.0644
LeftShoulder1  0.529099 -2.8835 0.174031
LeftArm  -44.545 10.7273 -38.8158
LeftForeArm  -52.932 -40.0792 -11.7104
LeftHand  1.27792 9.57627 34.1144
RightShoulder  0.751372 0.414799 12.1739
RightArm  10.6327 -21.065 21.0456
RightForeArm  24.5285 56.73 15.101
RightHand  -1.4554 -0.680569 -35.0445
LeftUpLeg  -33.9225 11.2719 46.5036
LeftLeg  53.6635 5.45484 8.38266
LeftFoot  -12.1843 -0.19666 -35.0932
LeftToes  6.91183e-011 3.39355e-011 2.1261e-011
497
root  -14.4829 32.4967 -0.477205 130.48 -69.0538 -118.589
RightUpLeg  -55.4737 -24.2283 10.3415
RightLeg  49.7288 20.0308 23.2072
RightFoot  9.15042 -3.12045 17.4788
RightToes  -1.16417e-010 0 -3.6325e-017
Spine  37.9284 0.756673 -17.7276
Spine1  -2.14615 -7.3812 15.1389
HEad  -31.9 28.6796 10.0015
LeftShoulder1  0.477843 -2.65801 0.781287
LeftArm  -44.8136 15.6784 -31.4647
LeftForeArm  -47.1232 -39.9412 -11.5355
LeftHand  1.50008 9.83001 37.4122
RightShoulder  0.60228 -0.442714 12.746
RightArm  7.10436 -23.6305 25.457
RightForeArm  22.8296 56.2861 14.9821
RightHand  -1.5187 -0.468839 -35.0012
LeftUpLeg  -31.9237 8.68205 50.7931
LeftLeg  50.091 7.99648 10.5624
LeftFoot  -9.20618 0.750867 -36.4336
LeftToes  6.91183e-011 3.39355e-011 2.1261e-011
498
root  -14.659 32.3689 -1.58777 128.653 -68.7341 -116.811
RightUpLeg  -55.458 -24.4771 12.6713
RightLeg  51.8968 18.1369 22.8206
RightFoot  3.96077 -2.18286 16.3856
RightToes  -1.16417e-010 0 -3.6325e-017
Spine  38.7824 -0.147215 -20.0361
Spine1  -3.23815 -9.75791 18.3673
HEad  -30.615 32.2441 9.33031
LeftShoulder1  0.491543 -2.7983 0.733369
LeftArm  -42.3771 19.0353 -24.9992
LeftForeArm  -38.8537 -38.7659 -10.8865
LeftHand  1.72301 9.96465 41.2099
RightShoulder  0.46495 -1.17524 13.1008
RightArm  2.35064 -26.9395 29.5261
RightForeArm  19.4742 55.4663 14.7895
RightHand  -1.53368 -0.328032 -34.392
LeftUpLeg  -30.2759 6.58755 53.302
LeftLeg  48.0103 9.53679 11.579
LeftFoot  -7.19371 1.39109 -36.0994
LeftToes  6.91183e-011 3.39355e-011 2.1261e-011
499
root  -14.8727 32.0178 -2.50541 127.813 -69.1849 -117.151
RightUpLeg  -54.6017 -23.1945 11.847
RightLeg  54.977 15.6232 22.1734
RightFoot  -2.1193 -1.35932 16.6044
RightToes  -1.16417e-010 0 -3.6325e-017
Spine  39.405 -0.357017 -21.2275
Spine1  -3.38247 -10.9353 20.8573
HEad  -30.8469 34.3364 7.5142
LeftShoulder1  0.541869 -3.1989 0.409998
LeftArm  -38.4469 20.5771 -21.3428
LeftForeArm  -30.0256 -36.9785 -9.97132
LeftHand  2.14298 10.46 45.6188
RightShoulder  0.341754 -1.78531 13.09
RightArm  -4.69961 -28.9423 33.5079
RightForeArm  11.4931 53.3634 14.2736
RightHand  -1.43555 -0.426782 -32.9032
LeftUpLeg  -28.5427 5.81485 54.4505
LeftLeg  47.2656 9.67209 11.4317
LeftFoot  -6.46638 1.60409 -35.6564
LeftToes  6.91183e-011 3.39355e-011 2.1261e-011
500
root  -15.1493 31.4979 -3.16871 128.356 -70.1324 -119.255
RightUpLeg  -53.9669 -21.4671 9.52251
RightLeg  58.8669 13.1114 21.7535
RightFoot  -7.83353 -0.580247 17.0247
RightToes  -1.16417e-010 0 -3.6325e-017
Spine  39.399 0.000902793 -21.4792
Spine1  -3.02489 -11.1407 23.5654
HEad  -32.0427 35.3574 4.82788
LeftShoulder1  0.637684 -3.72854 -0.42231
LeftArm  -33.6011 21.1359 -20.2533
LeftForeArm  -19.5775 -34.7772 -8.83332
LeftHand  2.67844 11.1071 49.9614
RightShoulder  0.269007 -2.15367 13.2094
RightArm  -13.1819 -28.1692 36.4224
RightForeArm  -0.699012 49.5713 13.2739
RightHand  -1.31528 -0.564979 -31.1181
LeftUpLeg  -27.0721 6.41429 54.6089
LeftLeg  47.7567 8.34013 10.1157
LeftFoot  -7.08167 1.42058 -35.9445
LeftToes  6.91183e-011 3.39355e-011 2.1261e-011
501
root  -15.4853 30.9056 -3.52323 129.361 -71.6201 -121.609
RightUpLeg  -54.1277 -20.4822 6.65319
RightLeg  63.2018 10.8364 21.6704
RightFoot  -12.0658 0.0258885 17.0794
RightToes  -1.16417e-010 0 -3.6325e-017
Spine  39.2215 0.232516 -20.5369
Spine1  -3.26216 -10.8397 26.1726
HEad  -33.4883 35.7009 1.99813
LeftShoulder1  0.782638 -4.23095 -1.90442
LeftArm  -27.5889 21.6452 -20.1208
LeftForeArm  -4.37601 -32.4648 -7.40698
LeftHand  2.99799 11.289 53.5685
RightShoulder  0.252756 -2.25386 13.5709
RightArm  -21.2883 -24.4835 37.4557
RightForeArm  -14.5696 43.9657 11.7241
RightHand  -1.28979 -0.381248 -29.4733
LeftUpLeg  -26.6795 7.98493 53.9932
LeftLeg  49.5536 5.86509 7.74294
LeftFoot  -8.55792 0.97192 -36.7207
LeftToes  6.91183e-011 3.39355e-011 2.1261e-011
502
root  -15.8505 30.363 -3.52963 129.541 -73.8449 -122.863
RightUpLeg  -54.4156 -20.6994 3.02199
RightLeg  67.1078 9.12876 21.9956
RightFoot  -14.8219 0.429261 17.3128
RightToes  -1.16417e-010 0 -3.6325e-017
Spine  39.2992 -0.12721 -18.2217
Spine1  -4.2249 -10.3986 28.0817
HEad  -35.3688 35.4226 -0.963952
LeftShoulder1  0.946351 -4.57883 -3.71218
LeftArm  -20.1105 22.5091 -19.9026
LeftForeArm  15.0623 -30.269 -5.76918
LeftHand  3.16057 11.2666 56.1377
RightShoulder  0.240967 -2.31282 13.6089
RightArm  -28.4725 -18.6707 37.0811
RightForeArm  -27.1514 37.5028 10.0263
RightHand  -1.27192 -0.125558 -27.7053
LeftUpLeg  -27.6616 9.92085 52.5474
LeftLeg  52.3422 3.09699 4.76054
LeftFoot  -9.94515 0.535802 -37.8244
LeftToes  6.91183e-011 3.39355e-011 2.1261e-011
503
root  -16.24 29.9823 -3.27516 130.722 -76.4886 -124.924
RightUpLeg  -54.0537 -21.2066 -1.52384
RightLeg  69.7477 8.1177 22.5089
RightFoot  -16.8571 0.758451 17.9937
RightToes  -1.16417e-010 0 -3.6325e-017
Spine  39.0137 -0.48754 -15.3201
Spine1  -5.10748 -9.57792 29.5263
HEad  -37.8839 34.0173 -4.58521
LeftShoulder1  1.0887 -4.74701 -5.3907
LeftArm  -11.0862 23.225 -19.7344
LeftForeArm  31.8879 -28.148 -4.35018
LeftHand  3.49965 11.7034 57.5991
RightShoulder  0.181991 -2.5663 12.7399
RightArm  -35.3061 -12.1161 36.0202
RightForeArm  -35.922 32.2245 8.76587
RightHand  -1.14356 -0.363923 -26.1452
LeftUpLeg  -28.9282 12.5788 50.3564
LeftLeg  55.2245 0.190041 0.786492
LeftFoot  -10.6461 0.310841 -39.2517
LeftToes  6.91183e-011 3.39355e-011 2.1261e-011
504
root  -16.6442 29.8265 -2.83853 134.589 -79.6141 -129.39
RightUpLeg  -53.0239 -22.0314 -6.82744
RightLeg  70.9475 7.72424 22.9444
RightFoot  -18.2953 1.01723 18.6542
RightToes  -1.16417e-010 0 -3.6325e-017
Spine  38.1626 -0.417475 -12.3006
Spine1  -6.02395 -8.16139 30.6636
HEad  -40.1449 30.8143 -8.66051
LeftShoulder1  1.21539 -4.94659 -6.72338
LeftArm  -0.441214 22.9344 -20.067
LeftForeArm  39.3778 -26.022 -3.50581
LeftHand  3.76347 12.1052 58.1415
RightShoulder  0.0718554 -3.0953 11.1635
RightArm  -41.9544 -6.40023 33.8475
RightForeArm  -41.0668 29.3355 8.14791
RightHand  -0.965177 -1.03244 -25.4618
LeftUpLeg  -30.3427 15.993 47.2661
LeftLeg  58.0766 -3.31205 -5.22249
LeftFoot  -10.6754 0.305331 -39.9515
LeftToes  6.91183e-011 3.39355e-011 2.1261e-011
